<svg xmlns="http://www.w3.org/2000/svg" data-name="Layer 1" viewBox="0 0 100 100" x="0px" y="0px"><defs><style>.cls-1{fill-rule:evenodd;}</style></defs><path class="cls-1" d="M27.116,94.981a21.688,21.688,0,0,1-8.323-41.625l.5-.2A38.2,38.2,0,0,1,23.532,23.34a1.359,1.359,0,0,1,1.869-.453L42.535,33.328a16.84,16.84,0,0,1,3.283-3.406L38.927,12.164l-.04-.094A3.062,3.062,0,0,1,44.575,9.8l0,0,6.647,17.308.311-.093q.78-.224,1.564-.369V8.1h0a3.058,3.058,0,0,1,6.115-.131,1.138,1.138,0,0,1,.007.131V26.652a16.712,16.712,0,0,1,1.76.427L67.738,9.8a3.062,3.062,0,0,1,5.688,2.267l-.04.094L66.494,29.923a16.726,16.726,0,0,1,3.289,3.4L86.911,22.887a1.361,1.361,0,0,1,1.87.453A38.192,38.192,0,1,1,22.488,61.223l-.358.14a12.791,12.791,0,0,0-6.293,5.87,13.112,13.112,0,0,0-1.21,8.619A12.957,12.957,0,0,0,27.176,86.275h55.2a4.544,4.544,0,0,1,2.352.434,4.323,4.323,0,0,1,0,7.839,4.546,4.546,0,0,1-2.352.434l-55.264,0ZM15.233,87.894a18.926,18.926,0,0,0,11.905,4.371H82.391a1.373,1.373,0,0,1,.212.006,1.812,1.812,0,0,0,.958-.174,1.614,1.614,0,0,0,0-2.938,1.821,1.821,0,0,0-.958-.173l-.139.006-55.319,0A15.7,15.7,0,0,1,11.954,76.384a15.816,15.816,0,0,1,1.465-10.4,15.511,15.511,0,0,1,7.635-7.126l21.175-8.3a1.326,1.326,0,0,1,.191-.147,1.352,1.352,0,0,1,.736-.216l13.8-5.408a1.719,1.719,0,0,0,.711-.911,1.845,1.845,0,0,0,.007-1.287,1.642,1.642,0,0,0-1.89-.994L19.858,55.86a18.8,18.8,0,0,0-9.3,8.571,19.017,19.017,0,0,0,4.674,23.463Zm6.6-35.742L39.451,45.16a16.759,16.759,0,0,1,1.671-9.507L25.17,25.931a35.467,35.467,0,0,0-3.337,26.221Zm20.251-8.037,12.779-5.071a1.481,1.481,0,0,1,.167-.055,4.349,4.349,0,0,1,5.179,2.6,4.578,4.578,0,0,1,.025,3.2,4.413,4.413,0,0,1-2.068,2.434,1.435,1.435,0,0,1-.138.064L45.356,52.261A14.1,14.1,0,0,0,68.328,36.078a1.389,1.389,0,0,1-.138-.189,1.371,1.371,0,0,1-.108-.217A14.1,14.1,0,0,0,57.77,29.185c-.045,0-.089-.007-.132-.014a14,14,0,0,0-2.987,0l-.091.01a14.135,14.135,0,0,0-10.384,6.57l-.1.162a14.07,14.07,0,0,0-1.993,8.2Zm.623,9.184L25.039,60.223a35.472,35.472,0,1,0,62.1-34.292L71.194,35.65q.332.662.608,1.36A16.823,16.823,0,0,1,42.707,53.3ZM70.255,10.84l-6.74,17.229.076.037c.194.095.386.195.577.3l6.685-17.225.027-.079a.346.346,0,0,0,0-.261.334.334,0,0,0-.182-.178.344.344,0,0,0-.262,0,.336.336,0,0,0-.177.177ZM56.493,26.372V8.1l0-.076a.362.362,0,0,0-.043-.123.347.347,0,0,0-.123-.129.335.335,0,0,0-.468.129.343.343,0,0,0-.046.173V8.1h.005V26.372q.337-.006.673,0Zm-7.8,1.743L42.064,10.846h0a.338.338,0,0,0-.442-.186.334.334,0,0,0-.182.178.346.346,0,0,0,0,.261l.027.079L48.144,28.4Q48.416,28.252,48.7,28.115Z"/><!-- Icon: "rolodex" by M2n, from Noun Project (CC BY 3.0) --></svg>